# xmcd
#
# Track frame offsets:
#	150
#	20005
#	39443
#	57143
#	77084
#	92057
#	109771
#	125406
#	143292
#	166521
#	182031
#
# Disc length: 2670 seconds
#
# Revision: 2
# Processed by: cddbd v1.5.2PL0 Copyright (c) Steve Scherf et al.
# Submitted via: audiograbber 1.83.01
#
DISCID=7e0a6c0b
DTITLE=Rascal Flatts - Changed
DYEAR=2012
DGENRE=Country
TTITLE0=Changed
TTITLE1=Banjo
TTITLE2=Hot in here
TTITLE3=Come wake me up
TTITLE4=She's leaving
TTITLE5=Let it hurt
TTITLE6=Lovin' me
TTITLE7=Hurry Baby
TTITLE8=Sunrise
TTITLE9=Great big love
TTITLE10=A little home
EXTD=
EXTT0=
EXTT1=
EXTT2=
EXTT3=
EXTT4=
EXTT5=
EXTT6=
EXTT7=
EXTT8=
EXTT9=
EXTT10=
PLAYORDER=
